<svg xmlns="http://www.w3.org/2000/svg" xmlns:xlink="http://www.w3.org/1999/xlink" width="352" height="130" viewBox="0 0 352 130"><defs><style>.a{fill:url(#a);}.b,.p{fill:#b47935;}.c{clip-path:url(#b);}.d{opacity:0.2;}.e,.h,.i,.j,.k,.n{isolation:isolate;}.f{fill:url(#d);}.g{fill:url(#e);}.h,.j{mix-blend-mode:multiply;}.h{fill:url(#f);}.i,.k,.n{mix-blend-mode:screen;}.i{fill:url(#g);}.j{opacity:0.35;fill:url(#h);}.k{fill:url(#i);}.l{fill:url(#j);}.m{fill:url(#k);}.n{fill:url(#l);}.o{clip-path:url(#m);}.p{fill-rule:evenodd;}.q,.r{fill:#fff;}.q{font-size:20px;font-family:BasisGrotesquePro-Bold, Basis Grotesque Pro;font-weight:700;}.r{font-size:9px;font-family:BasisGrotesquePro-Regular, Basis Grotesque Pro;}</style><linearGradient id="a" x1="0.071" y1="0.5" x2="1.049" y2="0.5" gradientUnits="objectBoundingBox"><stop offset="0" stop-color="#2e1963"/><stop offset="0.392" stop-color="#301b65"/><stop offset="1" stop-color="#7362a1"/></linearGradient><clipPath id="b"><rect class="a" width="352" height="130" rx="7"/></clipPath><linearGradient id="d" x1="0.865" y1="0.053" x2="0.168" y2="0.907" gradientUnits="objectBoundingBox"><stop offset="0" stop-color="#ffc175"/><stop offset="1" stop-color="#ffab00"/></linearGradient><linearGradient id="e" x1="0.5" y1="0.11" x2="0.5" y2="0.862" gradientUnits="objectBoundingBox"><stop offset="0" stop-color="#fffa75"/><stop offset="1" stop-color="#ff9a00"/></linearGradient><linearGradient id="f" x1="0.362" y1="0.205" x2="0.727" y2="0.985" gradientUnits="objectBoundingBox"><stop offset="0" stop-color="#fff"/><stop offset="1" stop-color="#ffc175"/></linearGradient><linearGradient id="g" x1="0.371" y1="0.189" x2="0.614" y2="0.773" gradientUnits="objectBoundingBox"><stop offset="0"/><stop offset="1" stop-color="#ffc857"/></linearGradient><linearGradient id="h" x1="0.5" y1="1.117" x2="0.5" y2="0.024" gradientUnits="objectBoundingBox"><stop offset="0" stop-color="#ffc175"/><stop offset="1" stop-color="#fff"/></linearGradient><linearGradient id="i" x1="0.49" y1="0.461" x2="0.422" y2="0.113" xlink:href="#g"/><linearGradient id="j" x1="0.5" y1="0.908" x2="0.5" y2="0.054" gradientUnits="objectBoundingBox"><stop offset="0" stop-color="gold"/><stop offset="1" stop-color="#ff9a00"/></linearGradient><linearGradient id="k" x1="0.5" y1="0.106" x2="0.774" y2="1" gradientUnits="objectBoundingBox"><stop offset="0" stop-color="#ffc175"/><stop offset="1" stop-color="#ff9a00"/></linearGradient><linearGradient id="l" x1="0.563" y1="0.613" x2="0.262" y2="0.076" xlink:href="#g"/><clipPath id="m"><rect class="b" width="68" height="78" transform="translate(-0.001 0.232)"/></clipPath></defs><g transform="translate(-12.556 -186.738)"><g transform="translate(12.556 186.738)"><g class="c"><rect class="a" width="365" height="135" transform="translate(-5 -2)"/><g class="d" transform="translate(251.115 27.003)"><g class="e" transform="translate(0 0)"><g transform="translate(0)"><ellipse class="f" cx="65.275" cy="67.352" rx="65.275" ry="67.352"/><ellipse class="g" cx="62.489" cy="64.478" rx="62.489" ry="64.478" transform="translate(2.786 2.875)"/><ellipse class="h" cx="62.489" cy="64.478" rx="62.489" ry="64.478" transform="translate(2.786 2.875)"/><path class="i" d="M166.469,191.237a64.173,64.173,0,0,1-8.914-32.728c0-34.679,27.342-62.891,60.951-62.891a59.484,59.484,0,0,1,43.172,18.52c-1.978,3.748-4.1,7.436-6.321,11a48.183,48.183,0,0,0-36.851-17.229c-27.041,0-49.04,22.7-49.04,50.6a51.177,51.177,0,0,0,8.927,29.1C174.478,188.972,170.48,190.189,166.469,191.237Z" transform="translate(-153.231 -91.157)"/><path class="j" d="M310.849,218.026q-.274,0-.546-.005a5.309,5.309,0,0,0-5.051,3.506,48.8,48.8,0,0,1-35.909,31.023,5.406,5.406,0,0,0-4.169,4.277l-.029.138a6.673,6.673,0,0,0,7.82,8.019c20.575-4.543,37.293-19.813,44.382-39.867a5.328,5.328,0,0,0-5.2-7.117Q311.5,218.026,310.849,218.026Z" transform="translate(-194.93 -136.271)"/><path class="k" d="M163.816,154.795q1.158,0,2.3.082a4.9,4.9,0,0,0,5.113-4.2c3.657-23.791,23.618-41.98,47.7-41.98a46.757,46.757,0,0,1,7.824.658,7.625,7.625,0,0,0,8-3.844l.064-.117a5.679,5.679,0,0,0-3.575-8.342,59.2,59.2,0,0,0-12.313-1.289c-30.4,0-55.6,23.009-60.123,53.071a5.117,5.117,0,0,0,4.948,5.962Z" transform="translate(-153.695 -91.21)"/><ellipse class="l" cx="47.502" cy="49.014" rx="47.502" ry="49.014" transform="translate(17.773 18.338)"/><ellipse class="m" cx="43.824" cy="45.219" rx="43.824" ry="45.219" transform="translate(21.451 22.133)"/><ellipse class="n" cx="43.824" cy="45.219" rx="43.824" ry="45.219" transform="translate(21.451 22.133)"/></g></g><g transform="translate(31.355 28.015)"><g class="o" transform="translate(-0.47 -0.25)"><g transform="translate(3.92 3.346)"><path class="p" d="M28.346,1.04,50.444,1,28.7,37.456C24.642,44.348,21.453,48.762,16.09,48.4H0Z" transform="translate(0 -1)"/><path class="p" d="M218.07,406.38l-22.07.04,21.715-36.456c4.053-6.892,7.238-11.306,12.595-10.943h16.069Z" transform="translate(-183.389 -335.966)"/></g></g></g></g></g><text class="q" transform="translate(23 50)"><tspan x="0" y="0">HaggleX </tspan><tspan x="0" y="23">Marketplace</tspan></text><text class="r" transform="translate(23 94)"><tspan x="0" y="0">Trade crypto and giftcard on HaggleX securely </tspan></text></g></g></svg>